<?xml version="1.0" encoding="UTF-8"?>
<svg xmlns="http://www.w3.org/2000/svg" xmlns:xlink="http://www.w3.org/1999/xlink" width="124" height="128" viewBox="0 0 124 128">
  <defs>
    <clipPath id="clip-path">
      <rect id="Rectangle_1255" data-name="Rectangle 1255" width="124" height="128" transform="translate(0 0.215)" fill="none" stroke="#2fb524" stroke-width="3"></rect>
    </clipPath>
  </defs>
  <g id="Group_2173" data-name="Group 2173" transform="translate(0 -0.215)">
    <g id="Group_2172" data-name="Group 2172" clip-path="url(#clip-path)">
      <path id="Path_1354" data-name="Path 1354" d="M164.888,34.017c8.013-6.01,29.43-9.788,34.057-10.017-12.02,14.024.62,37.4-10.017,52.087-12.783,17.655-35.19,7.889-35.19,7.889" transform="translate(-76.74 -11.98)" fill="none" stroke="#2fb524" stroke-linecap="round" stroke-linejoin="round" stroke-width="3"></path>
      <path id="Path_1355" data-name="Path 1355" d="M42.064,107.2C35.313,98.515,20.027,97.184,4,99.187c9.537,8.432,4.021,29.616,14.024,40.067,12.022,12.561,29.156,1.421,29.156,1.421" transform="translate(-1.997 -49.103)" fill="none" stroke="#2fb524" stroke-linecap="round" stroke-linejoin="round" stroke-width="3"></path>
      <path id="Path_1356" data-name="Path 1356" d="M122.926,82.018c-9.671,7.175-17.289,24.986-20.869,42.069a85.782,85.782,0,0,0-1.458,24.348l.521,6.594a11.239,11.239,0,0,1-11.2,12.123H89.9a11.239,11.239,0,0,1-11.222-11.845l.177-3.272a27.045,27.045,0,0,0-1.806-11.541A65.791,65.791,0,0,0,56,113.061" transform="translate(-27.953 -40.94)" fill="none" stroke="#2fb524" stroke-linecap="round" stroke-linejoin="round" stroke-width="3"></path>
      <path id="Path_1357" data-name="Path 1357" d="M92,8V35.978a16.027,16.027,0,0,0,11.624,15.41" transform="translate(-45.923 -3.993)" fill="none" stroke="#2fb524" stroke-linecap="round" stroke-linejoin="round" stroke-width="3"></path>
      <line id="Line_14" data-name="Line 14" y2="28" transform="translate(56 2.215)" fill="none" stroke="#2fb524" stroke-linecap="round" stroke-linejoin="round" stroke-width="3"></line>
      <line id="Line_15" data-name="Line 15" y2="28" transform="translate(66 2.215)" fill="none" stroke="#2fb524" stroke-linecap="round" stroke-linejoin="round" stroke-width="3"></line>
      <path id="Path_1358" data-name="Path 1358" d="M144.144,8V35.978a15.988,15.988,0,0,1-7.883,13.745l.977,18.378" transform="translate(-68.016 -3.993)" fill="none" stroke="#2fb524" stroke-linecap="round" stroke-linejoin="round" stroke-width="3"></path>
      <line id="Line_16" data-name="Line 16" y1="34.28" x2="1.495" transform="translate(52.575 45.854)" fill="none" stroke="#2fb524" stroke-linecap="round" stroke-linejoin="round" stroke-width="3"></line>
    </g>
  </g>
</svg>
